<svg xmlns="http://www.w3.org/2000/svg" xmlns:xlink="http://www.w3.org/1999/xlink" width="48" zoomAndPan="magnify" viewBox="0 0 36 36.000001" height="48" preserveAspectRatio="xMidYMid meet" version="1.0"><defs><g/><clipPath id="db578d355c"><path d="M 0.488281 0.976562 L 34.535156 0.976562 L 34.535156 35.027344 L 0.488281 35.027344 Z M 0.488281 0.976562 " clip-rule="nonzero"/></clipPath><clipPath id="f5f1f36fbe"><path d="M 17.511719 0.976562 C 8.109375 0.976562 0.488281 8.601562 0.488281 18.003906 C 0.488281 27.40625 8.109375 35.027344 17.511719 35.027344 C 26.914062 35.027344 34.535156 27.40625 34.535156 18.003906 C 34.535156 8.601562 26.914062 0.976562 17.511719 0.976562 " clip-rule="nonzero"/></clipPath><clipPath id="2dddc473e1"><path d="M 1.464844 2 L 34 2 L 34 34 L 1.464844 34 Z M 1.464844 2 " clip-rule="nonzero"/></clipPath></defs><g clip-path="url(#db578d355c)"><g clip-path="url(#f5f1f36fbe)"><path fill="#050a30" d="M 0.488281 0.976562 L 34.535156 0.976562 L 34.535156 35.027344 L 0.488281 35.027344 Z M 0.488281 0.976562 " fill-opacity="1" fill-rule="nonzero"/></g></g><g fill="#f4f6fc" fill-opacity="1"><g transform="translate(5.171045, 26.426579)"><g><path d="M 3.617188 1.332031 L 3.710938 1.332031 C 3.875 1.308594 3.96875 1.285156 4.128906 1.214844 C 6.113281 0.351562 7.28125 -1.726562 7.910156 -3.78125 C 8.097656 -4.503906 8.308594 -5.179688 8.308594 -5.925781 C 8.308594 -6.183594 8.425781 -6.394531 8.632812 -6.582031 C 9.566406 -7.421875 10.5 -8.191406 11.503906 -8.960938 C 11.597656 -9.03125 11.667969 -9.078125 11.714844 -9.125 C 11.738281 -9.148438 11.761719 -9.195312 11.761719 -9.265625 C 11.761719 -9.335938 11.738281 -9.378906 11.691406 -9.402344 C 11.667969 -9.449219 11.644531 -9.472656 11.574219 -9.472656 C 11.550781 -9.472656 11.527344 -9.472656 11.503906 -9.449219 C 11.410156 -9.378906 11.316406 -9.335938 11.222656 -9.289062 C 11.132812 -9.21875 11.039062 -9.148438 10.96875 -9.078125 C 10.199219 -8.449219 9.402344 -7.792969 8.65625 -7.140625 C 8.449219 -6.976562 8.308594 -6.882812 8.285156 -6.882812 C 8.238281 -6.882812 8.191406 -6.90625 8.167969 -6.976562 C 8.144531 -7.023438 8.074219 -7.117188 8.003906 -7.234375 C 7.5625 -8.050781 7 -8.121094 6.160156 -8.121094 C 5.015625 -8.121094 3.898438 -7.746094 2.800781 -7.398438 C 2.589844 -7.328125 2.355469 -7.257812 2.148438 -7.1875 C 1.9375 -7.117188 1.703125 -7.023438 1.492188 -6.953125 C 1.308594 -6.90625 1.121094 -6.882812 0.933594 -6.882812 C 0.816406 -6.882812 0.699219 -6.882812 0.628906 -6.90625 C 0.488281 -6.929688 0.421875 -7 0.421875 -7.117188 C 0.398438 -7.1875 0.398438 -7.234375 0.398438 -7.304688 C 0.398438 -7.375 0.398438 -7.421875 0.398438 -7.492188 C 0.421875 -7.839844 0.511719 -8.144531 0.605469 -8.449219 C 1.539062 -11.386719 3.828125 -15.191406 6.464844 -16.847656 C 7.023438 -17.199219 7.628906 -17.523438 8.308594 -17.59375 C 8.402344 -17.59375 8.449219 -17.640625 8.449219 -17.734375 C 8.425781 -17.804688 8.355469 -17.851562 8.285156 -17.875 C 7 -17.875 5.4375 -16.753906 4.527344 -15.84375 C 2.636719 -13.953125 0.816406 -10.875 0.09375 -8.261719 C 0.0234375 -7.980469 -0.0234375 -7.722656 0 -7.445312 C 0 -6.859375 0.558594 -6.488281 1.097656 -6.488281 C 1.167969 -6.488281 1.285156 -6.511719 1.445312 -6.535156 C 1.75 -6.605469 2.054688 -6.695312 2.332031 -6.789062 L 4.222656 -7.421875 C 4.945312 -7.675781 5.695312 -7.792969 6.464844 -7.792969 C 7.117188 -7.792969 7.652344 -7.628906 7.863281 -6.90625 C 7.933594 -6.652344 7.933594 -6.488281 7.722656 -6.324219 C 5.902344 -4.691406 3.335938 -1.984375 2.894531 0.488281 C 2.824219 1.027344 3.082031 1.332031 3.617188 1.332031 Z M 3.476562 1.003906 C 3.359375 1.003906 3.289062 0.933594 3.289062 0.769531 C 3.289062 0.0703125 3.96875 -1.261719 4.316406 -1.84375 C 5.179688 -3.242188 6.371094 -4.480469 7.5625 -5.601562 C 7.582031 -5.625 7.628906 -5.671875 7.675781 -5.695312 C 7.699219 -5.71875 7.746094 -5.742188 7.792969 -5.765625 C 7.839844 -5.789062 7.886719 -5.765625 7.910156 -5.671875 C 7.910156 -5.578125 7.910156 -5.507812 7.886719 -5.460938 C 7.375 -3.011719 6.441406 -0.652344 4.269531 0.652344 C 4.058594 0.816406 3.851562 0.910156 3.59375 0.980469 C 3.570312 1.003906 3.523438 1.003906 3.476562 1.003906 Z M 3.476562 1.003906 "/></g></g></g><g fill="#f4f6fc" fill-opacity="1"><g transform="translate(16.39397, 26.426579)"><g><path d="M 1.539062 -2.03125 C 1.632812 -2.03125 1.726562 -2.078125 1.84375 -2.148438 C 2.054688 -2.332031 2.21875 -2.566406 2.378906 -2.847656 C 4.035156 -5.367188 5.039062 -8.308594 5.949219 -11.175781 C 6.183594 -11.925781 7.398438 -13.417969 8.261719 -14.351562 C 9.125 -15.238281 10.570312 -16.660156 11.132812 -17.128906 C 11.152344 -17.152344 11.175781 -17.175781 11.199219 -17.175781 C 11.222656 -17.175781 11.246094 -17.152344 11.269531 -17.128906 C 11.269531 -17.105469 11.269531 -17.105469 11.269531 -17.082031 C 11.292969 -17.082031 11.292969 -17.058594 11.269531 -17.035156 C 11.246094 -16.964844 11.199219 -16.871094 11.152344 -16.800781 C 11.109375 -16.707031 11.0625 -16.613281 11.039062 -16.542969 C 9.542969 -13.746094 8.378906 -9.496094 8.003906 -6.417969 C 7.886719 -5.320312 7.792969 -4.199219 7.816406 -3.082031 C 7.816406 -2.988281 7.816406 -2.894531 7.816406 -2.800781 C 7.816406 -2.707031 7.839844 -2.613281 7.863281 -2.542969 C 7.910156 -2.355469 8.027344 -2.261719 8.214844 -2.238281 C 8.402344 -2.238281 8.539062 -2.238281 8.632812 -2.425781 C 8.65625 -2.496094 8.703125 -2.542969 8.726562 -2.613281 C 8.75 -2.660156 8.773438 -2.707031 8.796875 -2.777344 C 9.101562 -3.335938 9.378906 -3.898438 9.660156 -4.480469 C 9.941406 -5.039062 10.222656 -5.601562 10.5 -6.160156 C 11.039062 -7.1875 11.550781 -8.191406 12.203125 -9.148438 L 12.273438 -9.242188 C 12.296875 -9.265625 12.273438 -9.3125 12.203125 -9.378906 C 12.132812 -9.449219 12.085938 -9.472656 12.042969 -9.472656 C 11.996094 -9.472656 11.949219 -9.449219 11.925781 -9.402344 C 11.855469 -9.335938 11.785156 -9.242188 11.738281 -9.171875 C 11.667969 -9.101562 11.621094 -9.007812 11.550781 -8.9375 C 10.5 -7.070312 9.519531 -5.203125 8.5625 -3.265625 L 8.425781 -3.035156 C 8.402344 -3.011719 8.355469 -2.988281 8.332031 -2.988281 C 8.238281 -2.988281 8.238281 -3.195312 8.238281 -3.265625 C 8.355469 -6.789062 8.84375 -9.125 9.847656 -12.507812 C 10.289062 -13.816406 10.734375 -15.097656 11.386719 -16.3125 C 11.550781 -16.613281 11.667969 -16.894531 11.832031 -17.199219 C 11.855469 -17.269531 11.902344 -17.339844 11.925781 -17.40625 C 11.949219 -17.453125 11.972656 -17.523438 11.996094 -17.59375 C 12.0625 -17.757812 11.996094 -17.96875 11.832031 -18.039062 C 11.761719 -18.0625 11.738281 -18.085938 11.714844 -18.085938 C 11.621094 -18.085938 11.550781 -18.039062 11.480469 -17.96875 C 9.894531 -16.566406 8.515625 -15.238281 7.117188 -13.652344 C 7.046875 -13.582031 6.976562 -13.488281 6.929688 -13.417969 C 6.859375 -13.347656 6.789062 -13.277344 6.675781 -13.230469 C 6.652344 -13.441406 6.695312 -13.605469 6.765625 -13.792969 C 7.070312 -14.839844 7.304688 -15.914062 7.398438 -17.011719 C 7.421875 -17.363281 7.421875 -17.6875 7.351562 -18.039062 C 7.1875 -18.761719 6.742188 -19.460938 5.925781 -19.460938 C 3.3125 -19.226562 0.675781 -15.121094 0.09375 -12.554688 C 0.0234375 -12.15625 -0.046875 -11.761719 0.0234375 -11.363281 C 0.0703125 -10.921875 0.304688 -10.6875 0.699219 -10.6875 C 0.863281 -10.6875 1.191406 -10.710938 1.214844 -10.898438 C 1.214844 -10.96875 1.144531 -10.992188 1.027344 -10.992188 L 0.933594 -10.992188 C 0.863281 -10.96875 0.746094 -10.945312 0.628906 -10.945312 C 0.464844 -10.945312 0.398438 -11.015625 0.375 -11.175781 C 0.351562 -11.363281 0.328125 -11.550781 0.351562 -11.738281 C 0.421875 -12.554688 0.769531 -13.628906 1.332031 -14.679688 C 1.609375 -15.214844 1.9375 -15.726562 2.285156 -16.242188 C 3.011719 -17.269531 3.828125 -18.109375 4.738281 -18.667969 C 5.179688 -18.925781 5.648438 -19.089844 6.089844 -19.136719 C 6.464844 -19.136719 6.652344 -19.042969 6.835938 -18.691406 C 6.976562 -18.386719 7.046875 -18.085938 7.046875 -17.734375 C 7.070312 -17.199219 6.976562 -16.636719 6.882812 -16.101562 C 6.695312 -14.933594 6.066406 -12.367188 5.34375 -11.410156 C 3.851562 -9.3125 1.585938 -5.71875 1.097656 -3.125 C 1.027344 -2.871094 1.027344 -2.683594 1.050781 -2.425781 C 1.050781 -2.171875 1.285156 -2.03125 1.539062 -2.03125 Z M 1.46875 -2.519531 C 1.445312 -2.683594 1.445312 -2.847656 1.492188 -3.011719 C 1.539062 -3.171875 1.585938 -3.3125 1.609375 -3.476562 C 2.171875 -5.648438 3.59375 -8.074219 4.855469 -9.964844 C 4.878906 -10.011719 4.921875 -10.058594 4.945312 -10.128906 C 4.96875 -10.199219 5.039062 -10.222656 5.109375 -10.222656 C 5.132812 -10.152344 5.132812 -10.058594 5.0625 -9.964844 C 4.386719 -7.957031 3.105469 -4.386719 1.773438 -2.707031 C 1.75 -2.683594 1.726562 -2.636719 1.703125 -2.589844 C 1.679688 -2.542969 1.609375 -2.519531 1.539062 -2.519531 Z M 1.46875 -2.519531 "/></g></g></g><g clip-path="url(#2dddc473e1)"><path fill="#ffde59" d="M 29.777344 8.066406 C 27.832031 5.679688 25.238281 4.082031 22.40625 3.273438 C 21.433594 2.894531 20.429688 2.628906 19.402344 2.46875 C 19.394531 2.46875 19.390625 2.464844 19.382812 2.464844 C 12.960938 1.492188 6.140625 4.980469 3.46875 10.976562 C 3.449219 11.015625 3.433594 11.054688 3.417969 11.097656 C 2.554688 12.863281 2.054688 14.726562 1.921875 16.6875 C 1.460938 23.328125 5.648438 29.667969 11.625 32.402344 C 14.839844 33.875 18.660156 34.289062 22.058594 33.210938 C 25.574219 32.097656 28.328125 29.269531 30.386719 26.304688 C 34.300781 20.664062 34.160156 13.4375 29.777344 8.066406 Z M 7.5625 6.292969 C 11.769531 3.1875 17.414062 2.015625 22.410156 3.46875 C 24.074219 4.109375 25.558594 5.039062 26.863281 6.257812 C 31.554688 10.617188 33.113281 17.554688 30.011719 23.273438 C 27.011719 28.8125 20.195312 32.753906 13.832031 31.621094 C 9.882812 30.921875 6.171875 27.8125 4.265625 24.363281 C 2.453125 21.089844 1.941406 17.121094 2.820312 13.488281 C 3 12.757812 3.234375 12.046875 3.53125 11.351562 C 4.171875 9.980469 5 8.726562 6.011719 7.601562 C 7.027344 6.472656 8.183594 5.519531 9.480469 4.738281 C 12.699219 2.804688 16.421875 2.125 19.914062 2.765625 C 17.0625 2.417969 14.300781 2.773438 11.628906 3.828125 C 10.140625 4.425781 8.769531 5.226562 7.515625 6.226562 C 7.476562 6.253906 7.527344 6.316406 7.5625 6.292969 Z M 27.058594 29.84375 C 24.226562 32.566406 20.660156 33.875 16.734375 33.535156 C 10.34375 32.976562 4.707031 28.253906 2.777344 22.175781 C 2.0625 19.925781 1.902344 17.640625 2.292969 15.3125 C 1.710938 20.539062 3.929688 25.890625 8.226562 29.164062 C 11.285156 31.496094 14.671875 32.433594 18.484375 31.765625 C 21.652344 31.214844 24.636719 29.679688 26.988281 27.496094 C 31.839844 23 33.332031 16.070312 30.152344 10.164062 C 28.761719 7.574219 26.785156 5.558594 24.21875 4.125 C 24.839844 4.394531 25.441406 4.710938 26.015625 5.066406 C 31.230469 8.296875 34.171875 15.03125 32.628906 21.019531 C 31.753906 24.421875 29.5625 27.441406 27.058594 29.84375 Z M 27.058594 29.84375 " fill-opacity="1" fill-rule="nonzero"/></g></svg>