<svg xmlns="http://www.w3.org/2000/svg" xmlns:xlink="http://www.w3.org/1999/xlink" width="500" zoomAndPan="magnify" viewBox="0 0 375 374.999991" height="500" preserveAspectRatio="xMidYMid meet" version="1.0"><defs><g/><clipPath id="abfc374ec2"><path d="M 77.246094 127.457031 L 180.746094 127.457031 L 180.746094 152.207031 L 77.246094 152.207031 Z M 77.246094 127.457031 " clip-rule="nonzero"/></clipPath><clipPath id="3992577963"><path d="M 232 136 L 336 136 L 336 157 L 232 157 Z M 232 136 " clip-rule="nonzero"/></clipPath><clipPath id="2dd1d197b4"><path d="M 232.730469 132.027344 L 336.109375 136.96875 L 334.929688 161.691406 L 231.546875 156.75 Z M 232.730469 132.027344 " clip-rule="nonzero"/></clipPath><clipPath id="bac50603d3"><path d="M 335.296875 161.625 L 231.914062 156.683594 L 233.09375 131.964844 L 336.476562 136.902344 Z M 335.296875 161.625 " clip-rule="nonzero"/></clipPath></defs><rect x="-37.5" width="450" fill="#ffffff" y="-37.499999" height="449.999989" fill-opacity="1"/><rect x="-37.5" width="450" fill="#ffffff" y="-37.499999" height="449.999989" fill-opacity="1"/><rect x="-37.5" width="450" fill="#050a30" y="-37.499999" height="449.999989" fill-opacity="1"/><g clip-path="url(#abfc374ec2)"><path fill="#f4f6fc" d="M 80.773438 151.304688 C 81.027344 150.710938 80.929688 149.984375 80.507812 149.542969 C 80.46875 149.503906 80.425781 149.445312 80.378906 149.410156 C 80.296875 149.363281 80.214844 149.285156 80.125 149.210938 C 80.125 149.210938 80.113281 149.203125 80.113281 149.195312 C 80.105469 149.195312 80.105469 149.195312 80.105469 149.195312 C 79.738281 148.839844 79.382812 148.277344 79.160156 147.855469 C 79.152344 147.605469 79.171875 147.328125 79.210938 147.003906 C 79.382812 145.355469 80.714844 143.644531 83.203125 141.839844 C 84.609375 140.789062 86.378906 139.789062 88.511719 138.835938 C 90.734375 137.878906 93.410156 137.042969 96.550781 136.347656 C 103.355469 134.890625 109.921875 134.535156 116.257812 135.28125 C 122.503906 136.03125 128.914062 136.726562 135.503906 137.355469 C 139.109375 137.769531 142.757812 138 146.425781 138.050781 C 150.089844 138.101562 153.953125 137.859375 157.996094 137.332031 C 166.796875 136.191406 173.320312 134.128906 177.554688 131.152344 C 178.515625 130.453125 179.390625 129.84375 180.199219 129.300781 C 180.277344 128.996094 180.367188 128.695312 180.453125 128.390625 C 180.414062 128.082031 180.371094 127.769531 180.324219 127.457031 C 179.328125 128.15625 178.191406 128.941406 176.871094 129.851562 C 172.53125 132.746094 166.238281 134.742188 157.953125 135.824219 C 150.921875 136.777344 144.214844 136.785156 137.871094 135.859375 C 131.4375 134.941406 124.976562 134.253906 118.5 133.789062 C 114.992188 133.550781 111.410156 133.484375 107.761719 133.617188 C 104.121094 133.742188 100.378906 134.246094 96.542969 135.105469 C 92.796875 135.964844 89.679688 136.941406 87.207031 138.019531 C 84.832031 139.175781 82.949219 140.328125 81.554688 141.46875 C 78.859375 143.742188 77.558594 145.863281 77.683594 147.832031 L 77.757812 148.5 C 77.773438 148.683594 77.796875 148.847656 77.832031 149.003906 C 77.855469 149.394531 77.855469 149.792969 77.8125 150.140625 C 77.789062 150.386719 77.804688 150.644531 77.832031 150.894531 C 77.898438 151.511719 78.546875 152.109375 79.253906 152.199219 " fill-opacity="1" fill-rule="nonzero"/></g><g fill="#f4f6fc" fill-opacity="1"><g transform="translate(151.264185, 187.784881)"><g><path d="M 12.546875 4.613281 L 12.871094 4.613281 C 13.4375 4.53125 13.761719 4.453125 14.328125 4.210938 C 21.207031 1.214844 25.257812 -5.988281 27.441406 -13.113281 C 28.089844 -15.625 28.816406 -17.96875 28.816406 -20.5625 C 28.816406 -21.453125 29.222656 -22.179688 29.949219 -22.828125 C 33.1875 -25.742188 36.425781 -28.414062 39.90625 -31.085938 C 40.230469 -31.328125 40.472656 -31.488281 40.636719 -31.652344 C 40.71875 -31.730469 40.796875 -31.894531 40.796875 -32.136719 C 40.796875 -32.378906 40.71875 -32.542969 40.554688 -32.621094 C 40.472656 -32.785156 40.394531 -32.867188 40.152344 -32.867188 C 40.070312 -32.867188 39.988281 -32.867188 39.90625 -32.785156 C 39.585938 -32.542969 39.261719 -32.378906 38.9375 -32.21875 C 38.613281 -31.976562 38.289062 -31.730469 38.046875 -31.488281 C 35.375 -29.304688 32.621094 -27.035156 30.03125 -24.769531 C 29.304688 -24.203125 28.816406 -23.878906 28.738281 -23.878906 C 28.574219 -23.878906 28.414062 -23.960938 28.332031 -24.203125 C 28.25 -24.367188 28.007812 -24.691406 27.765625 -25.09375 C 26.226562 -27.925781 24.285156 -28.171875 21.371094 -28.171875 C 17.402344 -28.171875 13.519531 -26.875 9.714844 -25.660156 C 8.984375 -25.417969 8.175781 -25.175781 7.449219 -24.933594 C 6.71875 -24.691406 5.910156 -24.367188 5.179688 -24.121094 C 4.53125 -23.960938 3.886719 -23.878906 3.238281 -23.878906 C 2.832031 -23.878906 2.429688 -23.878906 2.1875 -23.960938 C 1.699219 -24.042969 1.457031 -24.285156 1.457031 -24.691406 C 1.375 -24.933594 1.375 -25.09375 1.375 -25.335938 C 1.375 -25.578125 1.375 -25.742188 1.375 -25.984375 C 1.457031 -27.199219 1.78125 -28.25 2.105469 -29.304688 C 5.34375 -39.503906 13.277344 -52.699219 22.421875 -58.445312 C 24.367188 -59.660156 26.46875 -60.792969 28.816406 -61.035156 C 29.140625 -61.035156 29.304688 -61.199219 29.304688 -61.519531 C 29.222656 -61.765625 28.980469 -61.925781 28.738281 -62.007812 C 24.285156 -62.007812 18.859375 -58.121094 15.703125 -54.964844 C 9.148438 -48.40625 2.832031 -37.722656 0.324219 -28.65625 C 0.0820312 -27.683594 -0.0820312 -26.792969 0 -25.824219 C 0 -23.800781 1.941406 -22.503906 3.804688 -22.503906 C 4.046875 -22.503906 4.453125 -22.585938 5.019531 -22.664062 C 6.070312 -22.910156 7.125 -23.230469 8.09375 -23.554688 L 14.652344 -25.742188 C 17.160156 -26.632812 19.75 -27.035156 22.421875 -27.035156 C 24.691406 -27.035156 26.550781 -26.46875 27.28125 -23.960938 C 27.523438 -23.070312 27.523438 -22.503906 26.792969 -21.9375 C 20.480469 -16.269531 11.574219 -6.878906 10.039062 1.699219 C 9.792969 3.5625 10.683594 4.613281 12.546875 4.613281 Z M 12.0625 3.480469 C 11.65625 3.480469 11.414062 3.238281 11.414062 2.671875 C 11.414062 0.242188 13.761719 -4.371094 14.976562 -6.394531 C 17.96875 -11.25 22.097656 -15.542969 26.226562 -19.429688 C 26.308594 -19.507812 26.46875 -19.671875 26.632812 -19.75 C 26.714844 -19.832031 26.875 -19.914062 27.035156 -19.996094 C 27.199219 -20.074219 27.359375 -19.996094 27.441406 -19.671875 C 27.441406 -19.347656 27.441406 -19.105469 27.359375 -18.941406 C 25.578125 -10.441406 22.34375 -2.265625 14.8125 2.265625 C 14.085938 2.832031 13.355469 3.15625 12.464844 3.398438 C 12.386719 3.480469 12.222656 3.480469 12.0625 3.480469 Z M 12.0625 3.480469 "/></g></g></g><g fill="#f4f6fc" fill-opacity="1"><g transform="translate(190.195993, 187.784881)"><g><path d="M 5.34375 -7.042969 C 5.667969 -7.042969 5.988281 -7.203125 6.394531 -7.449219 C 7.125 -8.09375 7.691406 -8.90625 8.257812 -9.875 C 14.003906 -18.617188 17.484375 -28.816406 20.640625 -38.773438 C 21.453125 -41.363281 25.660156 -46.546875 28.65625 -49.785156 C 31.652344 -52.859375 36.671875 -57.796875 38.613281 -59.417969 C 38.695312 -59.496094 38.773438 -59.578125 38.855469 -59.578125 C 38.9375 -59.578125 39.015625 -59.496094 39.097656 -59.417969 C 39.097656 -59.335938 39.097656 -59.335938 39.097656 -59.253906 C 39.179688 -59.253906 39.179688 -59.171875 39.097656 -59.09375 C 39.015625 -58.851562 38.855469 -58.527344 38.695312 -58.285156 C 38.53125 -57.960938 38.371094 -57.636719 38.289062 -57.394531 C 33.109375 -47.679688 29.0625 -32.945312 27.765625 -22.261719 C 27.359375 -18.457031 27.035156 -14.570312 27.117188 -10.683594 C 27.117188 -10.363281 27.117188 -10.039062 27.117188 -9.714844 C 27.117188 -9.390625 27.199219 -9.066406 27.28125 -8.824219 C 27.441406 -8.175781 27.847656 -7.851562 28.492188 -7.769531 C 29.140625 -7.769531 29.628906 -7.769531 29.949219 -8.417969 C 30.03125 -8.660156 30.195312 -8.824219 30.273438 -9.066406 C 30.355469 -9.226562 30.4375 -9.390625 30.519531 -9.632812 C 31.570312 -11.574219 32.542969 -13.519531 33.511719 -15.542969 C 34.484375 -17.484375 35.457031 -19.429688 36.425781 -21.371094 C 38.289062 -24.933594 40.070312 -28.414062 42.335938 -31.730469 L 42.578125 -32.054688 C 42.660156 -32.136719 42.578125 -32.296875 42.335938 -32.542969 C 42.09375 -32.785156 41.929688 -32.867188 41.769531 -32.867188 C 41.609375 -32.867188 41.445312 -32.785156 41.363281 -32.621094 C 41.121094 -32.378906 40.878906 -32.054688 40.71875 -31.8125 C 40.472656 -31.570312 40.3125 -31.246094 40.070312 -31.003906 C 36.425781 -24.527344 33.027344 -18.050781 29.707031 -11.332031 L 29.222656 -10.523438 C 29.140625 -10.441406 28.980469 -10.363281 28.898438 -10.363281 C 28.574219 -10.363281 28.574219 -11.089844 28.574219 -11.332031 C 28.980469 -23.554688 30.679688 -31.652344 34.160156 -43.390625 C 35.699219 -47.921875 37.238281 -52.375 39.503906 -56.582031 C 40.070312 -57.636719 40.472656 -58.605469 41.042969 -59.660156 C 41.121094 -59.902344 41.285156 -60.144531 41.363281 -60.386719 C 41.445312 -60.550781 41.527344 -60.792969 41.609375 -61.035156 C 41.851562 -61.601562 41.609375 -62.332031 41.042969 -62.574219 C 40.796875 -62.65625 40.71875 -62.734375 40.636719 -62.734375 C 40.3125 -62.734375 40.070312 -62.574219 39.828125 -62.332031 C 34.324219 -57.472656 29.546875 -52.859375 24.691406 -47.355469 C 24.445312 -47.113281 24.203125 -46.789062 24.042969 -46.546875 C 23.800781 -46.304688 23.554688 -46.058594 23.152344 -45.898438 C 23.070312 -46.625 23.230469 -47.191406 23.476562 -47.839844 C 24.527344 -51.484375 25.335938 -55.207031 25.660156 -59.011719 C 25.742188 -60.226562 25.742188 -61.359375 25.5 -62.574219 C 24.933594 -65.082031 23.394531 -67.511719 20.5625 -67.511719 C 11.496094 -66.703125 2.347656 -52.453125 0.324219 -43.550781 C 0.0820312 -42.175781 -0.160156 -40.796875 0.0820312 -39.421875 C 0.242188 -37.882812 1.050781 -37.074219 2.429688 -37.074219 C 2.996094 -37.074219 4.128906 -37.15625 4.210938 -37.804688 C 4.210938 -38.046875 3.964844 -38.128906 3.5625 -38.128906 L 3.238281 -38.128906 C 2.996094 -38.046875 2.589844 -37.964844 2.1875 -37.964844 C 1.617188 -37.964844 1.375 -38.207031 1.296875 -38.773438 C 1.214844 -39.421875 1.132812 -40.070312 1.214844 -40.71875 C 1.457031 -43.550781 2.671875 -47.273438 4.613281 -50.917969 C 5.585938 -52.777344 6.71875 -54.558594 7.933594 -56.339844 C 10.441406 -59.902344 13.277344 -62.816406 16.433594 -64.757812 C 17.96875 -65.648438 19.589844 -66.214844 21.128906 -66.378906 C 22.421875 -66.378906 23.070312 -66.054688 23.71875 -64.839844 C 24.203125 -63.789062 24.445312 -62.734375 24.445312 -61.519531 C 24.527344 -59.660156 24.203125 -57.714844 23.878906 -55.855469 C 23.230469 -51.808594 21.046875 -42.902344 18.539062 -39.585938 C 13.355469 -32.296875 5.503906 -19.832031 3.804688 -10.847656 C 3.5625 -9.957031 3.5625 -9.308594 3.644531 -8.417969 C 3.644531 -7.527344 4.453125 -7.042969 5.34375 -7.042969 Z M 5.101562 -8.742188 C 5.019531 -9.308594 5.019531 -9.875 5.179688 -10.441406 C 5.34375 -11.007812 5.503906 -11.496094 5.585938 -12.0625 C 7.527344 -19.589844 12.464844 -28.007812 16.835938 -34.566406 C 16.917969 -34.726562 17.082031 -34.890625 17.160156 -35.132812 C 17.242188 -35.375 17.484375 -35.457031 17.726562 -35.457031 C 17.808594 -35.210938 17.808594 -34.890625 17.566406 -34.566406 C 15.21875 -27.605469 10.765625 -15.21875 6.152344 -9.390625 C 6.070312 -9.308594 5.988281 -9.148438 5.910156 -8.984375 C 5.828125 -8.824219 5.585938 -8.742188 5.34375 -8.742188 Z M 5.101562 -8.742188 "/></g></g></g><g clip-path="url(#3992577963)"><g clip-path="url(#2dd1d197b4)"><g clip-path="url(#bac50603d3)"><path fill="#f4f6fc" d="M 332.914062 137.636719 C 332.628906 138.21875 332.695312 138.949219 333.09375 139.410156 C 333.132812 139.453125 333.167969 139.511719 333.21875 139.546875 C 333.296875 139.601562 333.375 139.679688 333.460938 139.757812 C 333.460938 139.757812 333.46875 139.765625 333.46875 139.773438 C 333.476562 139.773438 333.476562 139.773438 333.476562 139.773438 C 333.832031 140.148438 334.15625 140.726562 334.359375 141.160156 C 334.355469 141.40625 334.324219 141.6875 334.269531 142.007812 C 334.015625 143.644531 332.605469 145.292969 330.03125 146.972656 C 328.578125 147.957031 326.765625 148.871094 324.585938 149.722656 C 322.324219 150.574219 319.609375 151.28125 316.441406 151.824219 C 309.574219 152.953125 302.996094 152.996094 296.703125 151.949219 C 290.503906 150.898438 284.132812 149.898438 277.578125 148.957031 C 273.996094 148.371094 270.363281 147.964844 266.703125 147.742188 C 263.042969 147.515625 259.175781 147.574219 255.113281 147.910156 C 246.265625 148.628906 239.648438 150.375 235.28125 153.148438 C 234.285156 153.796875 233.382812 154.367188 232.550781 154.871094 C 232.457031 155.171875 232.355469 155.46875 232.253906 155.765625 C 232.277344 156.078125 232.304688 156.390625 232.335938 156.703125 C 233.363281 156.054688 234.535156 155.324219 235.898438 154.480469 C 240.371094 151.792969 246.753906 150.101562 255.082031 149.414062 C 262.152344 148.800781 268.851562 149.113281 275.144531 150.339844 C 281.527344 151.566406 287.945312 152.558594 294.390625 153.332031 C 297.886719 153.738281 301.460938 153.976562 305.113281 154.015625 C 308.753906 154.066406 312.515625 153.742188 316.386719 153.066406 C 320.171875 152.382812 323.328125 151.558594 325.851562 150.601562 C 328.28125 149.558594 330.214844 148.5 331.664062 147.425781 C 334.464844 145.28125 335.863281 143.226562 335.832031 141.253906 L 335.792969 140.582031 C 335.785156 140.398438 335.769531 140.234375 335.742188 140.074219 C 335.734375 139.683594 335.753906 139.289062 335.8125 138.941406 C 335.847656 138.695312 335.84375 138.4375 335.832031 138.1875 C 335.796875 137.566406 335.175781 136.941406 334.476562 136.816406 " fill-opacity="1" fill-rule="nonzero"/></g></g></g><g fill="#f4f6fc" fill-opacity="1"><g transform="translate(115.198842, 229.101374)"><g><path d="M 7.515625 0.140625 C 6.242188 0.140625 5.023438 -0.0625 3.859375 -0.46875 C 2.691406 -0.875 1.789062 -1.410156 1.15625 -2.078125 L 1.859375 -3.46875 C 2.484375 -2.851562 3.304688 -2.351562 4.328125 -1.96875 C 5.359375 -1.582031 6.421875 -1.390625 7.515625 -1.390625 C 9.046875 -1.390625 10.191406 -1.671875 10.953125 -2.234375 C 11.722656 -2.796875 12.109375 -3.523438 12.109375 -4.421875 C 12.109375 -5.109375 11.898438 -5.65625 11.484375 -6.0625 C 11.066406 -6.476562 10.554688 -6.796875 9.953125 -7.015625 C 9.347656 -7.234375 8.507812 -7.472656 7.4375 -7.734375 C 6.144531 -8.054688 5.113281 -8.367188 4.34375 -8.671875 C 3.582031 -8.972656 2.925781 -9.429688 2.375 -10.046875 C 1.832031 -10.671875 1.5625 -11.515625 1.5625 -12.578125 C 1.5625 -13.441406 1.789062 -14.226562 2.25 -14.9375 C 2.707031 -15.644531 3.410156 -16.210938 4.359375 -16.640625 C 5.304688 -17.066406 6.476562 -17.28125 7.875 -17.28125 C 8.851562 -17.28125 9.8125 -17.144531 10.75 -16.875 C 11.6875 -16.601562 12.5 -16.234375 13.1875 -15.765625 L 12.578125 -14.3125 C 11.859375 -14.789062 11.085938 -15.144531 10.265625 -15.375 C 9.453125 -15.613281 8.65625 -15.734375 7.875 -15.734375 C 6.375 -15.734375 5.242188 -15.441406 4.484375 -14.859375 C 3.734375 -14.285156 3.359375 -13.539062 3.359375 -12.625 C 3.359375 -11.9375 3.5625 -11.382812 3.96875 -10.96875 C 4.382812 -10.550781 4.90625 -10.234375 5.53125 -10.015625 C 6.164062 -9.796875 7.015625 -9.554688 8.078125 -9.296875 C 9.328125 -8.984375 10.335938 -8.675781 11.109375 -8.375 C 11.890625 -8.070312 12.546875 -7.613281 13.078125 -7 C 13.617188 -6.394531 13.890625 -5.570312 13.890625 -4.53125 C 13.890625 -3.664062 13.65625 -2.875 13.1875 -2.15625 C 12.726562 -1.445312 12.015625 -0.882812 11.046875 -0.46875 C 10.085938 -0.0625 8.910156 0.140625 7.515625 0.140625 Z M 7.515625 0.140625 "/></g></g></g><g fill="#f4f6fc" fill-opacity="1"><g transform="translate(132.445907, 229.101374)"><g><path d="M 17.109375 -17.125 L 17.109375 0 L 15.3125 0 L 15.3125 -7.90625 L 4.59375 -7.90625 L 4.59375 0 L 2.796875 0 L 2.796875 -17.125 L 4.59375 -17.125 L 4.59375 -9.5 L 15.3125 -9.5 L 15.3125 -17.125 Z M 17.109375 -17.125 "/></g></g></g><g fill="#f4f6fc" fill-opacity="1"><g transform="translate(154.53666, 229.101374)"><g><path d="M 13.53125 -4.578125 L 3.984375 -4.578125 L 1.9375 0 L 0.046875 0 L 7.875 -17.125 L 9.671875 -17.125 L 17.5 0 L 15.59375 0 Z M 12.875 -6.046875 L 8.765625 -15.25 L 4.65625 -6.046875 Z M 12.875 -6.046875 "/></g></g></g><g fill="#f4f6fc" fill-opacity="1"><g transform="translate(174.278952, 229.101374)"><g><path d="M 17.109375 -17.125 L 17.109375 0 L 15.3125 0 L 15.3125 -7.90625 L 4.59375 -7.90625 L 4.59375 0 L 2.796875 0 L 2.796875 -17.125 L 4.59375 -17.125 L 4.59375 -9.5 L 15.3125 -9.5 L 15.3125 -17.125 Z M 17.109375 -17.125 "/></g></g></g><g fill="#f4f6fc" fill-opacity="1"><g transform="translate(196.369706, 229.101374)"><g><path d="M 14.90625 -1.5625 L 14.90625 0 L 2.796875 0 L 2.796875 -17.125 L 14.53125 -17.125 L 14.53125 -15.5625 L 4.59375 -15.5625 L 4.59375 -9.46875 L 13.453125 -9.46875 L 13.453125 -7.921875 L 4.59375 -7.921875 L 4.59375 -1.5625 Z M 14.90625 -1.5625 "/></g></g></g><g fill="#f4f6fc" fill-opacity="1"><g transform="translate(214.937784, 229.101374)"><g><path d="M 14.90625 -1.5625 L 14.90625 0 L 2.796875 0 L 2.796875 -17.125 L 14.53125 -17.125 L 14.53125 -15.5625 L 4.59375 -15.5625 L 4.59375 -9.46875 L 13.453125 -9.46875 L 13.453125 -7.921875 L 4.59375 -7.921875 L 4.59375 -1.5625 Z M 14.90625 -1.5625 "/></g></g></g><g fill="#f4f6fc" fill-opacity="1"><g transform="translate(233.505855, 229.101374)"><g><path d="M 14.484375 0 L 10.578125 -5.5 C 10.128906 -5.457031 9.671875 -5.4375 9.203125 -5.4375 L 4.59375 -5.4375 L 4.59375 0 L 2.796875 0 L 2.796875 -17.125 L 9.203125 -17.125 C 11.390625 -17.125 13.101562 -16.601562 14.34375 -15.5625 C 15.582031 -14.519531 16.203125 -13.082031 16.203125 -11.25 C 16.203125 -9.914062 15.863281 -8.785156 15.1875 -7.859375 C 14.507812 -6.941406 13.539062 -6.28125 12.28125 -5.875 L 16.46875 0 Z M 9.15625 -6.96875 C 10.851562 -6.96875 12.148438 -7.34375 13.046875 -8.09375 C 13.941406 -8.84375 14.390625 -9.894531 14.390625 -11.25 C 14.390625 -12.632812 13.941406 -13.695312 13.046875 -14.4375 C 12.148438 -15.1875 10.851562 -15.5625 9.15625 -15.5625 L 4.59375 -15.5625 L 4.59375 -6.96875 Z M 9.15625 -6.96875 "/></g></g></g><g fill="#f4f6fc" fill-opacity="1"><g transform="translate(253.386047, 229.101374)"><g/></g></g><g fill="#f4f6fc" fill-opacity="1"><g transform="translate(178.188235, 261.900119)"><g><path d="M 3.953125 0.078125 C 3.285156 0.078125 2.644531 -0.0234375 2.03125 -0.234375 C 1.414062 -0.453125 0.941406 -0.738281 0.609375 -1.09375 L 0.984375 -1.828125 C 1.304688 -1.503906 1.738281 -1.238281 2.28125 -1.03125 C 2.820312 -0.832031 3.378906 -0.734375 3.953125 -0.734375 C 4.753906 -0.734375 5.359375 -0.878906 5.765625 -1.171875 C 6.171875 -1.472656 6.375 -1.859375 6.375 -2.328125 C 6.375 -2.691406 6.265625 -2.976562 6.046875 -3.1875 C 5.828125 -3.40625 5.554688 -3.570312 5.234375 -3.6875 C 4.921875 -3.800781 4.476562 -3.925781 3.90625 -4.0625 C 3.226562 -4.238281 2.6875 -4.40625 2.28125 -4.5625 C 1.882812 -4.71875 1.539062 -4.957031 1.25 -5.28125 C 0.96875 -5.613281 0.828125 -6.0625 0.828125 -6.625 C 0.828125 -7.070312 0.945312 -7.484375 1.1875 -7.859375 C 1.425781 -8.234375 1.789062 -8.53125 2.28125 -8.75 C 2.78125 -8.976562 3.398438 -9.09375 4.140625 -9.09375 C 4.660156 -9.09375 5.164062 -9.019531 5.65625 -8.875 C 6.15625 -8.738281 6.582031 -8.546875 6.9375 -8.296875 L 6.625 -7.53125 C 6.238281 -7.78125 5.832031 -7.96875 5.40625 -8.09375 C 4.976562 -8.21875 4.554688 -8.28125 4.140625 -8.28125 C 3.359375 -8.28125 2.765625 -8.125 2.359375 -7.8125 C 1.960938 -7.507812 1.765625 -7.117188 1.765625 -6.640625 C 1.765625 -6.285156 1.875 -6 2.09375 -5.78125 C 2.3125 -5.5625 2.582031 -5.390625 2.90625 -5.265625 C 3.238281 -5.148438 3.6875 -5.023438 4.25 -4.890625 C 4.90625 -4.722656 5.4375 -4.5625 5.84375 -4.40625 C 6.257812 -4.25 6.609375 -4.007812 6.890625 -3.6875 C 7.171875 -3.363281 7.3125 -2.925781 7.3125 -2.375 C 7.3125 -1.925781 7.1875 -1.515625 6.9375 -1.140625 C 6.695312 -0.765625 6.320312 -0.46875 5.8125 -0.25 C 5.3125 -0.03125 4.691406 0.078125 3.953125 0.078125 Z M 3.953125 0.078125 "/></g></g></g><g fill="#f4f6fc" fill-opacity="1"><g transform="translate(186.355831, 261.900119)"><g><path d="M 9 -9.015625 L 9 0 L 8.0625 0 L 8.0625 -4.15625 L 2.421875 -4.15625 L 2.421875 0 L 1.46875 0 L 1.46875 -9.015625 L 2.421875 -9.015625 L 2.421875 -5 L 8.0625 -5 L 8.0625 -9.015625 Z M 9 -9.015625 "/></g></g></g></svg>