<svg xmlns="http://www.w3.org/2000/svg" xmlns:xlink="http://www.w3.org/1999/xlink" width="96" zoomAndPan="magnify" viewBox="0 0 72 72" height="96" preserveAspectRatio="xMidYMid meet" version="1.0"><defs><g/><clipPath id="027b1c1607"><path d="M 0 1.273438 L 70.726562 1.273438 L 70.726562 72 L 0 72 Z M 0 1.273438 " clip-rule="nonzero"/></clipPath><clipPath id="9e060aa416"><path d="M 35.363281 1.273438 C 15.832031 1.273438 0 17.105469 0 36.636719 C 0 56.167969 15.832031 72 35.363281 72 C 54.894531 72 70.726562 56.167969 70.726562 36.636719 C 70.726562 17.105469 54.894531 1.273438 35.363281 1.273438 " clip-rule="nonzero"/></clipPath><clipPath id="00bb46268c"><path d="M 1.992188 3.269531 L 68.730469 3.269531 L 68.730469 70.007812 L 1.992188 70.007812 Z M 1.992188 3.269531 " clip-rule="nonzero"/></clipPath><clipPath id="0c6679a284"><path d="M 35.363281 3.269531 C 16.933594 3.269531 1.992188 18.207031 1.992188 36.636719 C 1.992188 55.066406 16.933594 70.007812 35.363281 70.007812 C 53.792969 70.007812 68.730469 55.066406 68.730469 36.636719 C 68.730469 18.207031 53.792969 3.269531 35.363281 3.269531 " clip-rule="nonzero"/></clipPath></defs><g clip-path="url(#027b1c1607)"><g clip-path="url(#9e060aa416)"><path fill="#ffde59" d="M 0 1.273438 L 70.726562 1.273438 L 70.726562 72 L 0 72 Z M 0 1.273438 " fill-opacity="1" fill-rule="nonzero"/></g></g><g clip-path="url(#00bb46268c)"><g clip-path="url(#0c6679a284)"><path fill="#050a30" d="M 1.992188 3.269531 L 68.730469 3.269531 L 68.730469 70.007812 L 1.992188 70.007812 Z M 1.992188 3.269531 " fill-opacity="1" fill-rule="nonzero"/></g></g><g fill="#f4f6fc" fill-opacity="1"><g transform="translate(16.04997, 58.170706)"><g><path d="M 19.28125 0.375 C 16.007812 0.375 12.878906 -0.144531 9.890625 -1.1875 C 6.898438 -2.238281 4.585938 -3.625 2.953125 -5.34375 L 4.765625 -8.921875 C 6.359375 -7.328125 8.472656 -6.035156 11.109375 -5.046875 C 13.753906 -4.066406 16.476562 -3.578125 19.28125 -3.578125 C 23.21875 -3.578125 26.164062 -4.296875 28.125 -5.734375 C 30.09375 -7.179688 31.078125 -9.054688 31.078125 -11.359375 C 31.078125 -13.117188 30.539062 -14.519531 29.46875 -15.5625 C 28.40625 -16.613281 27.097656 -17.421875 25.546875 -17.984375 C 24.003906 -18.554688 21.851562 -19.175781 19.09375 -19.84375 C 15.78125 -20.675781 13.140625 -21.476562 11.171875 -22.25 C 9.203125 -23.03125 7.515625 -24.21875 6.109375 -25.8125 C 4.710938 -27.40625 4.015625 -29.5625 4.015625 -32.28125 C 4.015625 -34.5 4.597656 -36.515625 5.765625 -38.328125 C 6.941406 -40.148438 8.742188 -41.601562 11.171875 -42.6875 C 13.597656 -43.78125 16.613281 -44.328125 20.21875 -44.328125 C 22.726562 -44.328125 25.1875 -43.984375 27.59375 -43.296875 C 30 -42.609375 32.082031 -41.65625 33.84375 -40.4375 L 32.28125 -36.734375 C 30.4375 -37.953125 28.46875 -38.863281 26.375 -39.46875 C 24.28125 -40.070312 22.226562 -40.375 20.21875 -40.375 C 16.363281 -40.375 13.460938 -39.628906 11.515625 -38.140625 C 9.578125 -36.660156 8.609375 -34.75 8.609375 -32.40625 C 8.609375 -30.644531 9.140625 -29.226562 10.203125 -28.15625 C 11.273438 -27.09375 12.613281 -26.28125 14.21875 -25.71875 C 15.832031 -25.15625 18 -24.535156 20.71875 -23.859375 C 23.945312 -23.066406 26.554688 -22.28125 28.546875 -21.5 C 30.535156 -20.726562 32.21875 -19.554688 33.59375 -17.984375 C 34.976562 -16.421875 35.671875 -14.300781 35.671875 -11.625 C 35.671875 -9.40625 35.070312 -7.382812 33.875 -5.5625 C 32.6875 -3.738281 30.851562 -2.289062 28.375 -1.21875 C 25.90625 -0.15625 22.875 0.375 19.28125 0.375 Z M 19.28125 0.375 "/></g></g></g></svg>